
<svg width="194px" height="67px" viewBox="0 0 194 67" version="1.1" xmlns="http://www.w3.org/2000/svg" xmlns:xlink="http://www.w3.org/1999/xlink">
    <defs>
        <polygon id="path-1" points="0.06 0.359 193.957 0.359 193.957 66.94 0.06 66.94"></polygon>
    </defs>
    <g id="Page-1" stroke="none" stroke-width="1" fill="none" fill-rule="evenodd">
        <g id="silex-app-logo-only-horizontal-cmyk">
            <path d="M86.688,30.444 C86.074,30.075 85.44,29.749 84.784,29.462 C84.233,29.216 83.613,28.986 82.928,28.771 C82.242,28.556 81.573,28.449 80.917,28.449 C80.385,28.449 79.961,28.531 79.644,28.694 C79.326,28.858 79.168,29.135 79.168,29.523 C79.168,29.81 79.26,30.044 79.445,30.229 C79.629,30.413 79.894,30.582 80.242,30.735 C80.59,30.889 81.014,31.038 81.516,31.181 C82.017,31.324 82.585,31.498 83.219,31.702 C84.222,32.009 85.127,32.347 85.936,32.715 C86.744,33.083 87.434,33.519 88.008,34.02 C88.58,34.521 89.02,35.129 89.327,35.846 C89.634,36.562 89.788,37.432 89.788,38.455 C89.788,39.764 89.547,40.864 89.067,41.753 C88.586,42.644 87.951,43.355 87.164,43.887 C86.375,44.419 85.485,44.803 84.493,45.038 C83.501,45.273 82.503,45.391 81.501,45.391 C80.703,45.391 79.884,45.33 79.045,45.207 C78.206,45.084 77.373,44.91 76.544,44.685 C75.715,44.46 74.917,44.194 74.15,43.887 C73.383,43.579 72.672,43.232 72.016,42.843 L74.595,37.595 C75.311,38.046 76.057,38.444 76.836,38.792 C77.49,39.099 78.232,39.375 79.061,39.621 C79.889,39.867 80.734,39.989 81.593,39.989 C82.247,39.989 82.702,39.903 82.959,39.728 C83.214,39.555 83.342,39.324 83.342,39.038 C83.342,38.731 83.214,38.47 82.959,38.255 C82.702,38.041 82.349,37.851 81.9,37.687 C81.449,37.524 80.933,37.36 80.35,37.196 C79.766,37.033 79.148,36.839 78.493,36.613 C77.531,36.286 76.702,35.933 76.007,35.554 C75.311,35.176 74.738,34.746 74.288,34.265 C73.838,33.785 73.506,33.237 73.29,32.623 C73.075,32.009 72.968,31.303 72.968,30.505 C72.968,29.298 73.188,28.234 73.628,27.313 C74.068,26.392 74.666,25.625 75.424,25.011 C76.18,24.397 77.045,23.932 78.017,23.615 C78.989,23.298 80.017,23.139 81.101,23.139 C81.9,23.139 82.677,23.215 83.434,23.37 C84.191,23.523 84.923,23.718 85.629,23.952 C86.335,24.188 86.995,24.443 87.609,24.72 C88.222,24.996 88.775,25.257 89.266,25.502 L86.688,30.444" id="Fill-1" fill="#FAC922"></path>
            <polygon id="Fill-2" fill="#FAC922" points="101.635 45.115 107.62 45.115 107.62 23.323 101.635 23.323"></polygon>
            <polyline id="Fill-3" fill="#FAC922" points="120.572 45.115 120.572 23.323 126.557 23.323 126.557 39.897 136.44 39.897 136.44 45.115 120.572 45.115"></polyline>
            <polyline id="Fill-4" fill="#FAC922" points="163.357 39.897 163.357 45.115 147.827 45.115 147.827 23.323 163.082 23.323 163.082 28.541 153.812 28.541 153.812 31.61 161.73 31.61 161.73 36.459 153.812 36.459 153.812 39.897 163.357 39.897"></polyline>
            <g id="Group-8">
                <mask id="mask-2" fill="white">
                    <use xlink:href="#path-1"></use>
                </mask>
                <g id="Clip-6"></g>
                <polyline id="Fill-5" fill="#FAC922" mask="url(#mask-2)" points="179.593 23.323 183.552 30.199 187.511 23.323 193.957 23.323 186.682 34.373 193.712 45.115 187.265 45.115 183.552 38.547 179.839 45.115 173.362 45.115 180.391 34.373 173.117 23.323 179.593 23.323"></polyline>
                <path d="M66.369,8.076 C65.069,8.076 64.012,7.018 64.012,5.719 C64.012,4.418 65.069,3.361 66.369,3.361 C67.669,3.361 68.726,4.418 68.726,5.719 C68.726,7.018 67.669,8.076 66.369,8.076 Z M62.767,58.342 C62.767,59.696 61.667,60.797 60.313,60.797 C58.96,60.797 57.858,59.696 57.858,58.342 C57.858,56.989 58.96,55.888 60.313,55.888 C61.667,55.888 62.767,56.989 62.767,58.342 Z M48.472,23.995 L46.26,48.173 L46.033,48.428 L39.438,55.819 L28.073,32.674 L38.894,13.319 L48.782,20.62 L48.472,23.995 Z M15.442,44.866 L24.587,36.928 L33.08,54.222 L15.442,44.866 Z M21.736,21.219 L31.937,15.511 L22.796,31.859 L16.313,37.485 L21.736,21.219 Z M5.457,63.998 C4.103,63.998 3.002,62.897 3.002,61.543 C3.002,60.19 4.103,59.089 5.457,59.089 C6.81,59.089 7.912,60.19 7.912,61.543 C7.912,62.897 6.81,63.998 5.457,63.998 Z M7.651,16.605 C6.297,16.605 5.196,15.505 5.196,14.151 C5.196,12.798 6.297,11.696 7.651,11.696 C9.004,11.696 10.105,12.798 10.105,14.151 C10.105,15.505 9.004,16.605 7.651,16.605 Z M66.369,0.359 C63.414,0.359 61.009,2.763 61.009,5.719 C61.009,6.523 61.2,7.279 61.519,7.964 L51.947,16.738 L37.958,6.408 L17.602,17.798 L16.807,20.184 L12.501,16.597 C12.876,15.858 13.107,15.035 13.107,14.151 C13.107,11.142 10.659,8.694 7.651,8.694 C4.642,8.694 2.194,11.142 2.194,14.151 C2.194,17.159 4.642,19.607 7.651,19.607 C8.682,19.607 9.636,19.303 10.46,18.804 L15.788,23.241 L8.006,46.584 L15.215,50.409 L8.19,56.849 C7.383,56.377 6.457,56.087 5.457,56.087 C2.448,56.087 0,58.535 0,61.543 C0,64.552 2.448,67 5.457,67 C8.466,67 10.914,64.552 10.914,61.543 C10.914,60.627 10.666,59.777 10.265,59.019 L18.029,51.902 L39.484,63.283 L49.879,51.631 L55.319,56.161 C55.025,56.831 54.856,57.566 54.856,58.342 C54.856,61.351 57.304,63.799 60.313,63.799 C63.321,63.799 65.769,61.351 65.769,58.342 C65.769,55.334 63.321,52.886 60.313,52.886 C59.169,52.886 58.109,53.244 57.231,53.847 L51.222,48.843 L53.957,18.968 L63.494,10.226 C64.326,10.759 65.309,11.078 66.369,11.078 C69.324,11.078 71.728,8.674 71.728,5.719 C71.728,2.763 69.324,0.359 66.369,0.359 L66.369,0.359 Z" id="Fill-7" fill="#FAD04E" mask="url(#mask-2)"></path>
            </g>
        </g>
    </g>
</svg>