
<svg width="91px" height="84px" viewBox="0 0 91 84" version="1.1" xmlns="http://www.w3.org/2000/svg" xmlns:xlink="http://www.w3.org/1999/xlink">
    <defs>
        <polygon id="path-1" points="0 0.078 90.328 0.078 90.328 83.939 0 83.939"></polygon>
    </defs>
    <g id="Page-1" stroke="none" stroke-width="1" fill="none" fill-rule="evenodd">
        <g id="silex-app-icon-only-cmyk">
            <mask id="mask-2" fill="white">
                <use xlink:href="#path-1"></use>
            </mask>
            <g id="Clip-2"></g>
            <path d="M83.579,9.796 C81.942,9.796 80.611,8.464 80.611,6.828 C80.611,5.191 81.942,3.859 83.579,3.859 C85.216,3.859 86.548,5.191 86.548,6.828 C86.548,8.464 85.216,9.796 83.579,9.796 Z M79.043,73.097 C79.043,74.802 77.657,76.189 75.953,76.189 C74.248,76.189 72.861,74.802 72.861,73.097 C72.861,71.393 74.248,70.007 75.953,70.007 C77.657,70.007 79.043,71.393 79.043,73.097 Z M61.042,29.844 L58.256,60.291 L57.97,60.612 L49.665,69.919 L35.352,40.773 L48.979,16.399 L61.431,25.594 L61.042,29.844 Z M19.447,56.125 L30.963,46.13 L41.658,67.909 L19.447,56.125 Z M27.372,26.347 L40.218,19.159 L28.707,39.746 L20.544,46.831 L27.372,26.347 Z M6.872,80.219 C5.167,80.219 3.781,78.832 3.781,77.128 C3.781,75.423 5.167,74.037 6.872,74.037 C8.577,74.037 9.963,75.423 9.963,77.128 C9.963,78.832 8.577,80.219 6.872,80.219 Z M9.635,20.537 C7.931,20.537 6.543,19.151 6.543,17.447 C6.543,15.742 7.931,14.355 9.635,14.355 C11.339,14.355 12.725,15.742 12.725,17.447 C12.725,19.151 11.339,20.537 9.635,20.537 Z M83.579,0.078 C79.858,0.078 76.83,3.106 76.83,6.828 C76.83,7.84 77.07,8.792 77.471,9.656 L65.418,20.704 L47.802,7.695 L22.167,22.039 L21.165,25.043 L15.743,20.527 C16.214,19.597 16.506,18.56 16.506,17.447 C16.506,13.658 13.423,10.575 9.635,10.575 C5.846,10.575 2.763,13.658 2.763,17.447 C2.763,21.235 5.846,24.318 9.635,24.318 C10.933,24.318 12.135,23.935 13.172,23.306 L19.882,28.893 L10.081,58.29 L19.161,63.107 L10.314,71.216 C9.298,70.622 8.132,70.257 6.872,70.257 C3.083,70.257 0,73.34 0,77.128 C0,80.917 3.083,84 6.872,84 C10.661,84 13.744,80.917 13.744,77.128 C13.744,75.975 13.432,74.904 12.927,73.949 L22.705,64.987 L49.723,79.319 L62.813,64.646 L69.663,70.35 C69.293,71.193 69.081,72.12 69.081,73.097 C69.081,76.887 72.164,79.969 75.953,79.969 C79.741,79.969 82.823,76.887 82.823,73.097 C82.823,69.31 79.741,66.227 75.953,66.227 C74.513,66.227 73.177,66.676 72.071,67.437 L64.505,61.135 L67.949,23.513 L79.959,12.504 C81.007,13.175 82.245,13.576 83.579,13.576 C87.301,13.576 90.328,10.549 90.328,6.828 C90.328,3.106 87.301,0.078 83.579,0.078 L83.579,0.078 Z" id="Fill-1" fill="#FAC922" mask="url(#mask-2)"></path>
        </g>
    </g>
</svg>